<?xml version="1.0" standalone="no"?>
<!DOCTYPE svg PUBLIC "-//W3C//DTD SVG 20010904//EN"
 "http://www.w3.org/TR/2001/REC-SVG-20010904/DTD/svg10.dtd">
<svg version="1.0" xmlns="http://www.w3.org/2000/svg"
 width="413.000000pt" height="413.000000pt" viewBox="0 0 413.000000 413.000000"
 preserveAspectRatio="xMidYMid meet">
<metadata>
Created by potrace 1.14, written by Peter Selinger 2001-2017
</metadata>
<g transform="translate(0.000000,413.000000) scale(0.100000,-0.100000)"
fill="#000000" stroke="none">
<path d="M3928 4125 c-3 -3 -34 -10 -69 -15 -118 -18 -418 -102 -575 -161
-568 -212 -1090 -617 -1450 -1123 -177 -249 -274 -435 -520 -996 -149 -340
-182 -406 -282 -570 -137 -222 -142 -232 -142 -265 0 -14 14 -53 31 -85 l31
-60 47 0 c194 -1 629 -34 660 -50 19 -10 7 -13 -139 -40 -192 -34 -220 -39
-350 -60 -69 -10 -199 -31 -290 -45 -402 -63 -704 -126 -794 -165 -50 -21 -86
-56 -86 -82 0 -30 43 -65 101 -82 270 -81 1577 -175 3659 -266 129 -5 265 -11
303 -14 l67 -3 0 43 0 43 -52 5 c-29 3 -168 10 -308 16 -1160 48 -2338 116
-3000 174 -303 27 -606 68 -623 85 -18 18 327 91 743 156 658 104 840 139 886
173 46 33 48 86 5 119 -42 31 -218 57 -496 71 -89 5 -129 11 -128 19 3 14 570
942 591 966 33 38 112 6 112 -45 0 -12 -38 -86 -85 -164 -47 -79 -85 -149 -85
-157 0 -35 42 -23 274 74 414 174 572 267 756 449 102 99 250 290 250 321 0
17 -33 59 -228 294 -121 146 -130 139 168 145 135 3 251 9 258 13 7 5 33 49
57 98 93 188 119 221 534 683 163 181 304 340 313 355 27 40 22 75 -16 115
-29 31 -40 36 -78 36 -25 0 -47 -2 -50 -5z"/>
</g>
</svg>
